# xmcd CD database file
#
# Track frame offsets:
#	150
#	23572
#	39947
#	58047
#	75092
#	107752
#	133922
#	156890
#	175682
#	209432
#	227422
#	248530
#	268445
#	298977
#	319007
#
# Disc length: 4520 seconds
#
# Revision: 2
# Processed by: cddbd v1.4PL0 Copyright (c) Steve Scherf et al.
# Submitted via: jetAudio 5
#
DISCID=c711a60f
DTITLE=The Dramatics - Their Greatest Love Songs
DYEAR=1900
DGENRE=
TTITLE0=In The Rain
TTITLE1=Fall In Love, Lady Love
TTITLE2=Me And Mrs. Jones
TTITLE3=(I'm Going By) The Stars In Your Eyes
TTITLE4=Treat Me Like A Man
TTITLE5=Door To My Heart
TTITLE6=Just Shopping(Not Buying Anything)
TTITLE7=I Can't Get Over You
TTITLE8=Do What You Want, Be What You Are
TTITLE9=Stop Your Weeping
TTITLE10=Ocean Of Thoughts And Dreams
TTITLE11=Spaced Out Over You
TTITLE12=Welcome Back Home
TTITLE13=You're The Best Thing In My Life
TTITLE14=Be My Girl
EXTD=
EXTT0=
EXTT1=
EXTT2=
EXTT3=
EXTT4=
EXTT5=
EXTT6=
EXTT7=
EXTT8=
EXTT9=
EXTT10=
EXTT11=
EXTT12=
EXTT13=
EXTT14=
PLAYORDER=
